# xmcd
#
# Track frame offsets:
#	150
#	14844
#	28021
#	39381
#	52672
#	62338
#	77189
#	90232
#	103509
#	115477
#
# Disc length: 1752 seconds
#
# Revision: 0
# Processed by: cddbd v1.5.2PL0 Copyright (c) Steve Scherf et al.
# Submitted via: EasyCDDAExtractor 10.0.2.1
#
DISCID=7106d60a
DTITLE=Francisco Charro Avitia - Corridos Y Mas Rancheras
DYEAR=2003
DGENRE=Country
TTITLE0=Los Camperos
TTITLE1=Maquina 501
TTITLE2=El Cenzontle
TTITLE3=El General
TTITLE4=Por Una Mujer Casada
TTITLE5=Corrido De Cananea
TTITLE6=Pajarillo De La Sierra
TTITLE7=Mi Caballo Bayo
TTITLE8=Carretera De Ensenada
TTITLE9=Corrido De Santa Amalia
EXTD=
EXTT0=
EXTT1=
EXTT2=
EXTT3=
EXTT4=
EXTT5=
EXTT6=
EXTT7=
EXTT8=
EXTT9=
PLAYORDER=
